<svg width="512" height="512" viewBox="0 0 135.467 135.467" xmlns="http://www.w3.org/2000/svg"><rect width="135.3" height="135.008" x=".316" y=".316" ry="5.292" fill="#6723cd"/><g fill="#9dbaff" stroke="#000"><path d="M106.347 19.953h14.389c2.53 0 4.567 2.26 4.567 5.069v85.158c0 2.809-2.037 5.07-4.567 5.07h-14.16c-2.531 0-36.315-2.261-36.315-5.07V25.022c0-2.808 33.555-5.07 36.086-5.07z" stroke-width=".218"/><a transform="matrix(.86738 0 0 .85514 6.773 10.32)" stroke-width=".253"><path d="M26.374 11.265H9.785c-2.917 0-5.266 2.643-5.266 5.927v99.583c0 3.284 2.349 5.928 5.266 5.928h16.326c2.917 0 41.867-2.644 41.867-5.928V17.192c0-3.284-38.686-5.927-41.604-5.927z"/></a></g><g fill="#b8cdff" stroke="#000"><path d="M105.485 19.952h14.06c2.473 0 4.463 2.26 4.463 5.069v85.16c0 2.809-1.99 5.07-4.463 5.07h-13.837c-2.473 0-35.486-2.261-35.486-5.07v-85.16c0-2.809 32.79-5.07 35.263-5.07z" stroke-width=".216"/><a transform="matrix(.84759 0 0 .85516 8.183 10.319)" stroke-width=".253"><path d="M26.374 11.265H9.785c-2.917 0-5.266 2.643-5.266 5.927v99.583c0 3.284 2.349 5.928 5.266 5.928h16.326c2.917 0 41.867-2.644 41.867-5.928V17.192c0-3.284-38.686-5.927-41.604-5.927z"/></a></g><g fill="#e0fdff" stroke="#000"><path d="M104.162 19.952h14.06c2.473 0 4.463 2.26 4.463 5.069v85.16c0 2.809-1.99 5.07-4.463 5.07h-13.837c-2.473 0-35.486-2.261-35.486-5.07v-85.16c0-2.809 32.79-5.07 35.263-5.07z" stroke-width=".216"/><a transform="matrix(.84759 0 0 .85516 9.506 10.32)" stroke-width=".253"><path d="M26.374 11.265H9.785c-2.917 0-5.266 2.643-5.266 5.927v99.583c0 3.284 2.349 5.928 5.266 5.928h16.326c2.917 0 41.867-2.644 41.867-5.928V17.192c0-3.284-38.686-5.927-41.604-5.927z"/></a></g></svg>