<svg xmlns="http://www.w3.org/2000/svg" width="512" height="512" viewBox="0 0 135.467 135.467" xmlns:v="https://vecta.io/nano"><style><![CDATA[.B{stroke-width:2.951}.C{stroke-linecap:round}.D{font-family:sans-serif}.E{stroke:#f2f2f2}.F{font-family:UD Digi Kyokasho NP-B}]]></style><rect width="123.99" height="122.188" x="5.738" y="6.639" ry="5" fill="#854dff"/><rect width="110.805" height="110.689" x="12.331" y="12.342" ry="3.49" fill="#fff"/><rect width="55.562" height="110.689" x="67.574" y="12.342" ry="3.531" fill="#f2f2f2"/><text xml:space="preserve" transform="matrix(.290061 0 0 .290061 -7.251381 39.250269)" style="white-space:pre" x="95.777" font-size="43.784" fill="#000" y="0" class="D"><tspan x="290.568" y="181.884"><tspan class="F">Novel </tspan></tspan><tspan x="265.266" y="241.873"><tspan class="F">Tracker</tspan></tspan></text><path d="M71.576 19.88h47.358m-47.496 3.933h47.358m-47.225 3.968h47.358M71.571 31.75h47.358m-47.358 3.969h47.358m-47.358 3.969h47.358" fill="none" stroke="#bebebe" class="B C"/><path d="M16.142 19.844H63.5m-47.496 3.933h47.358m-47.225 3.968h47.358m-47.358 3.969h47.358m-47.358 3.969h47.358m-47.358 3.969h47.358" fill="#ececec" class="B C E"/><path d="M71.745 46.404h47.358m-47.496 3.933h47.358M71.74 54.305h47.358M71.74 58.274h47.358M71.74 62.243h47.358M71.74 66.212h47.358" fill="none" stroke="#bebebe" class="B C"/><g fill="#ececec" class="B C E"><path d="M16.139 46.302h47.358m-47.496 3.933h47.358m-47.225 3.968h47.358m-47.358 3.969h47.358m-47.358 3.969h47.358M16.134 66.11h47.358"/><path d="M16.078 72.913h47.358M15.94 76.846h47.358m-47.225 3.968h47.358m-47.358 3.969h47.358m-47.358 3.969h47.358m-47.358 3.969h47.358"/></g></svg>