<svg xmlns="http://www.w3.org/2000/svg" xmlns:xlink="http://www.w3.org/1999/xlink" width="512" height="512" viewBox="0 0 135.467 135.467" xmlns:v="https://vecta.io/nano"><style><![CDATA[.B{stroke-width:2.951}.C{stroke-linecap:round}.D{stroke:#f2f2f2}.E{font-family:sans-serif}]]></style><rect width="123.99" height="122.188" x="5.738" y="6.639" ry="5" fill="#854dff"/><rect width="110.805" height="110.689" x="12.331" y="12.342" ry="3.49" fill="#fff"/><rect width="55.562" height="110.689" x="67.574" y="12.342" ry="3.531" fill="#f2f2f2"/><path d="M84.355 89.279l-.099-6.201q0-.273.186-.44.248-.229.651-.229.453 0 .695.279.143.167.143.391v7.72q0 .496-.26.819-.279.341-.775.341-.769 0-1.209-.763l-3.925-6.772.099 6.858q0 .298-.205.471-.248.217-.639.217-.502 0-.732-.335-.099-.149-.099-.353v-7.634q0-.738.651-1.085.304-.161.676-.161.887 0 1.377.856zm6.517-4.241q1.401 0 2.307.93.949.974.949 2.555 0 1.246-.583 2.139-.899 1.37-2.685 1.37-1.563 0-2.468-1.091-.794-.949-.794-2.425 0-1.581.943-2.542.912-.936 2.332-.936zm-.019 1.346q-.788 0-1.24.682-.378.571-.378 1.445 0 .664.211 1.16.422.98 1.426.98.8 0 1.24-.67.378-.577.378-1.47 0-.905-.403-1.476-.453-.651-1.234-.651zm7.262 3.416l1.65-4.217q.192-.49.688-.49.236 0 .465.124.453.248.453.676 0 .155-.068.31l-2.195 5.066q-.31.713-.986.713-.688 0-.998-.713l-2.195-5.066q-.068-.155-.068-.304 0-.446.446-.682.229-.118.465-.118.502 0 .695.484z"/><use xlink:href="#B"/><path d="M111.981 83.091v8.167q0 .254-.155.428-.236.273-.664.273-.484 0-.707-.341-.099-.155-.099-.36v-8.167q0-.366.322-.552.223-.13.484-.13.322 0 .564.174.254.186.254.508zm-38.773 18.392h-2.667q-.18 0-.31-.081-.322-.198-.322-.682 0-.403.242-.626.155-.149.391-.149h7.088q.198 0 .347.105.285.217.285.664 0 .428-.254.639-.155.13-.378.13h-2.667v7.15q0 .316-.223.508-.248.217-.657.217-.552 0-.775-.36-.099-.155-.099-.366z"/><use xlink:href="#C"/><path d="M90.181 103.387l.037-.403q.043-.508.664-.508.496 0 .682.378.062.13.062.291v5.538q0 .211-.093.372-.186.304-.62.304-.602 0-.695-.626l-.068-.428q-.614 1.104-2.102 1.104-1.588 0-2.443-1.277-.608-.905-.608-2.195 0-1.222.62-2.127.508-.75 1.315-1.091.558-.242 1.172-.242 1.377 0 2.077.912zm-.13 2.654v-.496q0-.688-.508-1.203-.515-.521-1.191-.521-.781 0-1.259.651-.422.577-.422 1.457 0 .757.298 1.296.459.825 1.37.825.564 0 1.029-.428.682-.626.682-1.581zm6.529-3.603q1.339 0 2.121.769.403.397.403.8 0 .304-.248.521-.223.192-.508.192-.322 0-.54-.267-.527-.645-1.24-.645-.812 0-1.302.682-.415.577-.415 1.439 0 .874.471 1.463.521.645 1.277.645.726 0 1.315-.738.186-.242.477-.242.273 0 .515.211.279.236.279.608 0 .329-.285.657-.781.899-2.301.899-1.55 0-2.505-1.029-.905-.974-.905-2.493 0-.967.428-1.761.67-1.246 2.046-1.6.44-.112.918-.112zm5.724 4.496v1.736q0 .298-.205.477-.242.211-.595.211-.521 0-.719-.378-.068-.136-.068-.31v-8.192q0-.248.155-.415.229-.254.633-.254.502 0 .713.347.087.143.087.322v4.626l2.753-2.338q.279-.236.577-.236.279 0 .496.211.267.267.267.589 0 .322-.273.54l-1.953 1.563 2.276 2.499q.229.26.229.589 0 .391-.291.608-.279.211-.595.211-.36 0-.614-.31l-2.158-2.673z"/><use xlink:href="#B" x="5.497" y="17.4"/><use xlink:href="#C" x="36.103"/><path d="M71.576 19.88h47.358m-47.496 3.933h47.358m-47.225 3.968h47.358M71.571 31.75h47.358m-47.358 3.969h47.358m-47.358 3.969h47.358" fill="none" stroke="#bebebe" class="B C"/><path d="M16.142 19.844H63.5m-47.496 3.933h47.358m-47.225 3.968h47.358m-47.358 3.969h47.358m-47.358 3.969h47.358m-47.358 3.969h47.358" fill="#ececec" class="B C D"/><path d="M71.745 46.404h47.358m-47.496 3.933h47.358M71.74 54.305h47.358M71.74 58.274h47.358M71.74 62.243h47.358M71.74 66.212h47.358" fill="none" stroke="#bebebe" class="B C"/><g fill="#ececec" class="B C D"><path d="M16.139 46.302h47.358m-47.496 3.933h47.358m-47.225 3.968h47.358m-47.358 3.969h47.358m-47.358 3.969h47.358M16.134 66.11h47.358"/><path d="M16.078 72.913h47.358M15.94 76.846h47.358m-47.225 3.968h47.358m-47.358 3.969h47.358m-47.358 3.969h47.358m-47.358 3.969h47.358"/></g><defs ><path id="B" d="M103.752 88.926q.037.75.533 1.215.54.508 1.364.508.936 0 1.6-.682.18-.192.422-.192.273 0 .502.229.211.217.211.515 0 .341-.341.664-.887.85-2.456.85-1.358 0-2.276-.757-1.209-.986-1.209-2.735 0-1.296.682-2.22.943-1.284 2.648-1.284 1.408 0 2.319 1.036.775.874.775 1.966 0 .484-.18.676-.198.211-.645.211zm.025-1.246h2.921q.192 0 .192-.155 0-.335-.279-.676-.428-.527-1.197-.527-.459 0-.862.236-.651.378-.775 1.122z"/><path id="C" d="M81.133 105.688v2.983q0 .267-.174.446-.236.242-.633.242-.471 0-.688-.322-.105-.155-.105-.366v-5.513q0-.248.155-.422.223-.236.602-.236.477 0 .67.36.074.13.074.298v.651q.316-.546.633-.843.583-.533 1.395-.533.639 0 1.098.403.329.291.329.664 0 .267-.18.496-.248.316-.639.316-.254 0-.428-.136-.229-.18-.533-.18-.924 0-1.575 1.693z"/></defs></svg>